<svg preserveAspectRatio="xMidYMid meet" viewBox="152.8 114.8 165 171" xmlns="http://www.w3.org/2000/svg" version="1.0" style="max-height: 500px" width="165" height="171">

<g stroke="none" fill="#000000" transform="translate(0.000000,500.000000) scale(0.100000,-0.100000)">
<path d="M1934 3770 c-96 -38 -174 -128 -205 -235 -58 -206 58 -691 259 -1079&#10;92 -178 172 -241 255 -201 40 19 62 54 115 184 24 57 55 119 69 138 26 34 108&#10;83 139 83 31 0 7 25 -42 43 -40 15 -56 17 -86 8 -60 -18 -121 -104 -178 -252&#10;-36 -95 -45 -109 -70 -109 -53 0 -172 230 -268 516 -51 152 -78 263 -93 390&#10;-10 85 -9 112 4 176 20 99 39 138 92 187 89 82 180 80 360 -8 147 -72 201 -90&#10;282 -98 58 -5 168 9 202 27 7 4 -31 9 -85 12 -55 3 -112 11 -129 18 -16 7 -46&#10;20 -65 28 -19 8 -75 42 -124 75 -137 92 -185 111 -291 114 -72 2 -100 -1 -141&#10;-17z"/>
<path d="M2829 2974 c-47 -36 -123 -73 -183 -91 -67 -20 -217 -20 -283 0 -56&#10;17 -148 60 -173 81 -35 30 -43 27 -15 -6 40 -47 138 -112 200 -134 67 -22 185&#10;-23 255 -2 69 22 158 80 205 136 42 49 42 51 -6 16z"/>
<path d="M920 1815 l0 -145 115 0 115 0 0 25 c0 25 -1 25 -85 25 l-85 0 0 35&#10;0 35 70 0 c68 0 70 1 70 25 0 24 -2 25 -70 25 l-70 0 0 35 0 34 83 3 c76 3 82&#10;5 85 26 3 22 2 22 -112 22 l-116 0 0 -145z"/>
<path d="M1280 1815 l0 -145 83 0 c128 0 182 44 181 147 -2 100 -58 143 -186&#10;143 l-78 0 0 -145z m181 66 c39 -40 41 -97 3 -135 -22 -21 -36 -26 -75 -26&#10;-45 0 -48 2 -51 28 -2 15 -2 57 0 95 l4 67 45 0 c36 0 50 -6 74 -29z"/>
<path d="M1680 1853 c0 -89 3 -114 20 -140 36 -60 148 -67 202 -12 16 15 28&#10;38 28 51 1 13 2 65 3 116 l2 92 -27 0 -28 0 0 -98 c0 -125 -11 -144 -78 -140&#10;-61 4 -72 25 -72 146 0 91 0 92 -25 92 l-25 0 0 -107z"/>
<path d="M2220 1815 l0 -145 69 0 c86 0 122 12 152 53 19 25 24 44 24 89 0&#10;100 -58 148 -177 148 l-68 0 0 -145z m187 91 c25 -22 28 -30 28 -90 0 -58 -3&#10;-69 -27 -93 -24 -23 -38 -28 -98 -31 l-70 -4 0 121 0 121 69 0 c59 0 74 -4 98&#10;-24z"/>
<path d="M2590 1815 l0 -145 100 0 c60 0 100 4 100 10 0 6 -37 10 -90 10 l-91&#10;0 3 58 3 57 50 2 c28 1 63 2 78 2 16 1 26 5 22 11 -3 6 -40 10 -81 10 l-74 0&#10;0 50 c0 55 -1 54 83 50 47 -2 97 9 97 21 0 5 -45 9 -100 9 l-100 0 0 -145z"/>
<path d="M2910 1815 c0 -90 4 -145 10 -145 9 0 15 107 10 203 -1 20 2 37 7 37&#10;4 -1 50 -55 101 -120 51 -66 100 -120 108 -120 11 0 14 25 14 145 0 122 -2&#10;145 -15 145 -12 0 -15 -20 -15 -122 l-1 -123 -22 26 c-12 14 -56 69 -97 122&#10;-41 53 -81 97 -87 97 -10 0 -13 -36 -13 -145z"/>
<path d="M3260 1950 c0 -12 34 -19 75 -17 l30 2 3 -133 c3 -172 22 -174 27 -3&#10;2 67 6 125 9 128 3 3 25 6 50 6 30 1 46 6 46 14 0 10 -30 13 -120 13 -72 0&#10;-120 -4 -120 -10z"/>
<path d="M3601 1822 c-34 -76 -61 -142 -61 -145 0 -20 23 -2 36 28 l14 35 84&#10;0 84 0 12 -35 c6 -19 18 -35 25 -35 10 0 1 31 -31 108 -25 59 -52 124 -61 145&#10;-8 20 -21 37 -28 37 -7 0 -40 -62 -74 -138z m112 20 c15 -35 27 -68 27 -73 0&#10;-5 -32 -9 -71 -9 -39 0 -69 3 -67 8 8 15 39 83 53 119 18 43 23 39 58 -45z"/>
<path d="M3914 1818 l1 -143 93 -3 c59 -2 92 1 92 8 0 6 -31 10 -80 10 l-80 0&#10;0 135 c0 106 -3 135 -13 135 -11 0 -14 -30 -13 -142z"/>
<path d="M2631 1454 c0 -11 3 -14 6 -6 3 7 2 16 -1 19 -3 4 -6 -2 -5 -13z"/>
</g>
</svg>